<svg width="16" height="21" viewBox="0 0 16 21" fill="none" xmlns="http://www.w3.org/2000/svg">
<g filter="url(#filter0_d_1_3)">
<mask id="path-1-outside-1_1_3" maskUnits="userSpaceOnUse" x="1" y="1" width="12" height="17" fill="black">
<rect fill="white" x="1" y="1" width="12" height="17"/>
<path d="M2.76136 17V2.45455H11.5398V4.01705H4.52273V8.93182H11.0852V10.4943H4.52273V15.4375H11.6534V17H2.76136Z"/>
</mask>
<path d="M2.76136 17V2.45455H11.5398V4.01705H4.52273V8.93182H11.0852V10.4943H4.52273V15.4375H11.6534V17H2.76136Z" fill="#161616"/>
<path d="M2.76136 17H1.76136V18H2.76136V17ZM2.76136 2.45455V1.45455H1.76136V2.45455H2.76136ZM11.5398 2.45455H12.5398V1.45455H11.5398V2.45455ZM11.5398 4.01705V5.01705H12.5398V4.01705H11.5398ZM4.52273 4.01705V3.01705H3.52273V4.01705H4.52273ZM4.52273 8.93182H3.52273V9.93182H4.52273V8.93182ZM11.0852 8.93182H12.0852V7.93182H11.0852V8.93182ZM11.0852 10.4943V11.4943H12.0852V10.4943H11.0852ZM4.52273 10.4943V9.49432H3.52273V10.4943H4.52273ZM4.52273 15.4375H3.52273V16.4375H4.52273V15.4375ZM11.6534 15.4375H12.6534V14.4375H11.6534V15.4375ZM11.6534 17V18H12.6534V17H11.6534ZM3.76136 17V2.45455H1.76136V17H3.76136ZM2.76136 3.45455H11.5398V1.45455H2.76136V3.45455ZM10.5398 2.45455V4.01705H12.5398V2.45455H10.5398ZM11.5398 3.01705H4.52273V5.01705H11.5398V3.01705ZM3.52273 4.01705V8.93182H5.52273V4.01705H3.52273ZM4.52273 9.93182H11.0852V7.93182H4.52273V9.93182ZM10.0852 8.93182V10.4943H12.0852V8.93182H10.0852ZM11.0852 9.49432H4.52273V11.4943H11.0852V9.49432ZM3.52273 10.4943V15.4375H5.52273V10.4943H3.52273ZM4.52273 16.4375H11.6534V14.4375H4.52273V16.4375ZM10.6534 15.4375V17H12.6534V15.4375H10.6534ZM11.6534 16H2.76136V18H11.6534V16Z" fill="black" mask="url(#path-1-outside-1_1_3)"/>
</g>
<defs>
<filter id="filter0_d_1_3" x="0.761364" y="0.454544" width="14.892" height="20.5455" filterUnits="userSpaceOnUse" color-interpolation-filters="sRGB">
<feFlood flood-opacity="0" result="BackgroundImageFix"/>
<feColorMatrix in="SourceAlpha" type="matrix" values="0 0 0 0 0 0 0 0 0 0 0 0 0 0 0 0 0 0 127 0" result="hardAlpha"/>
<feOffset dx="1" dy="1"/>
<feGaussianBlur stdDeviation="1"/>
<feComposite in2="hardAlpha" operator="out"/>
<feColorMatrix type="matrix" values="0 0 0 0 0.1 0 0 0 0 0 0 0 0 0 1 0 0 0 0.25 0"/>
<feBlend mode="normal" in2="BackgroundImageFix" result="effect1_dropShadow_1_3"/>
<feBlend mode="normal" in="SourceGraphic" in2="effect1_dropShadow_1_3" result="shape"/>
</filter>
</defs>
</svg>
